<svg width="100" height="100" viewBox="0 0 100 100" fill="none" xmlns="http://www.w3.org/2000/svg">
	<path
		d="M25.0342 4.10214C25.0342 2.99757 24.1387 2.10214 23.0342 2.10214L4.10217 2.10214C2.9976 2.10214 2.10217 2.99757 2.10217 4.10214L2.10217 95.8936C2.10217 96.7025 2.58946 97.4318 3.33681 97.7414C4.08415 98.0509 4.94439 97.8798 5.51639 97.3078L97.3079 5.51636C97.8799 4.94436 98.051 4.08412 97.7414 3.33678C97.4318 2.58943 96.7026 2.10214 95.8936 2.10214L69.7905 2.10214C69.26 2.10214 68.7513 2.31286 68.3762 2.68793L25.0342 46.03V4.10214Z"
		fill="white" stroke="white" stroke-width="4" stroke-miterlimit="16" stroke-linejoin="round"/>
	<path
		d="M42.1296 59.9142C41.3486 60.6952 41.3486 61.9616 42.1296 62.7426L76.6948 97.3078C77.0699 97.6829 77.5786 97.8936 78.109 97.8936H95.8936C96.9982 97.8936 97.8936 96.9982 97.8936 95.8936V78.109C97.8936 77.5786 97.6829 77.0699 97.3079 76.6948L62.7426 42.1296C61.9616 41.3485 60.6953 41.3485 59.9142 42.1296L42.1296 59.9142Z"
		fill="white" stroke="white" stroke-width="4" stroke-miterlimit="16" stroke-linejoin="round"/>
	<path d="M4.10217 4.10214L23.0342 4.10214V50.8584L69.7904 4.10214L95.8937 4.10214L4.10217 95.8936L4.10217 4.10214Z"
		  fill="black"/>
	<path opacity="0.5" d="M43.5438 61.3284L78.109 95.8936H95.8936V78.109L61.3284 43.5438L43.5438 61.3284Z"
		  fill="black"/>
</svg>
